<!--<svg xmlns="http://www.w3.org/2000/svg" width="48" height="48" viewBox="0 0 48 48">
    <title>ionicons-v5-a</title>
    <path d="M51.087 60.54C52.033 60.54 52.9574 60.2588 53.7439 59.7312C54.5304 59.204 55.1435 58.454 55.5056 57.5772C55.8674 56.7 55.9622 55.7348 55.7778 54.8036C55.593 53.8728 55.1378 53.0172 54.4687 52.346C53.8 51.6748 52.9478 51.2176 52.02 51.0324C51.0922 50.8472 50.1304 50.9424 49.2565 51.3056C48.3826 51.6688 47.6361 52.284 47.1104 53.0736C46.5848 53.8628 46.3043 54.7908 46.3043 55.74C46.3043 57.0132 46.8083 58.234 47.7052 59.1344C48.6022 60.0344 49.8187 60.54 51.087 60.54ZM75 60.54C75.9461 60.54 76.8704 60.2588 77.6569 59.7312C78.4435 59.204 79.0565 58.454 79.4187 57.5772C79.7804 56.7 79.8752 55.7348 79.6909 54.8036C79.5061 53.8728 79.0509 53.0172 78.3817 52.346C77.713 51.6748 76.8609 51.2176 75.933 51.0324C75.0052 50.8472 74.0435 50.9424 73.17 51.3056C72.2961 51.6688 71.5491 52.284 71.0235 53.0736C70.4978 53.8628 70.2174 54.7908 70.2174 55.74C70.2174 57.0132 70.7213 58.234 71.6183 59.1344C72.5152 60.0344 73.7317 60.54 75 60.54ZM51.087 79.74C52.033 79.74 52.9574 79.4588 53.7439 78.9312C54.5304 78.404 55.1435 77.654 55.5056 76.7772C55.8674 75.9 55.9622 74.9348 55.7778 74.0036C55.593 73.0728 55.1378 72.2172 54.4687 71.546C53.8 70.8748 52.9478 70.4176 52.02 70.2324C51.0922 70.0472 50.1304 70.1424 49.2565 70.5056C48.3826 70.8688 47.6361 71.484 47.1104 72.2736C46.5848 73.0628 46.3043 73.9908 46.3043 74.94C46.3043 76.2132 46.8083 77.434 47.7052 78.3344C48.6022 79.2344 49.8187 79.74 51.087 79.74ZM75 79.74C75.9461 79.74 76.8704 79.4588 77.6569 78.9312C78.4435 78.404 79.0565 77.654 79.4187 76.7772C79.7804 75.9 79.8752 74.9348 79.6909 74.0036C79.5061 73.0728 79.0509 72.2172 78.3817 71.546C77.713 70.8748 76.8609 70.4176 75.933 70.2324C75.0052 70.0472 74.0435 70.1424 73.17 70.5056C72.2961 70.8688 71.5491 71.484 71.0235 72.2736C70.4978 73.0628 70.2174 73.9908 70.2174 74.94C70.2174 76.2132 70.7213 77.434 71.6183 78.3344C72.5152 79.2344 73.7317 79.74 75 79.74ZM27.1739 60.54C28.1198 60.54 29.0445 60.2588 29.831 59.7312C30.6175 59.204 31.2305 58.454 31.5925 57.5772C31.9544 56.7 32.0492 55.7348 31.8646 54.8036C31.6801 53.8728 31.2246 53.0172 30.5557 52.346C29.8869 51.6748 29.0347 51.2176 28.107 51.0324C27.1792 50.8472 26.2176 50.9424 25.3437 51.3056C24.4698 51.6688 23.7228 52.284 23.1973 53.0736C22.6718 53.8628 22.3913 54.7908 22.3913 55.74C22.3913 57.0132 22.8952 58.234 23.7921 59.1344C24.689 60.0344 25.9055 60.54 27.1739 60.54ZM84.5652 12.5402H79.7826V7.7402C79.7826 6.46716 79.2787 5.24624 78.3817 4.34608C77.4848 3.4459 76.2683 2.94019 75 2.94019C73.7317 2.94019 72.5152 3.4459 71.6183 4.34608C70.7213 5.24624 70.2174 6.46716 70.2174 7.7402V12.5402H31.9565V7.7402C31.9565 6.46716 31.4526 5.24624 30.5557 4.34608C29.6588 3.4459 28.4423 2.94019 27.1739 2.94019C25.9055 2.94019 24.689 3.4459 23.7921 4.34608C22.8952 5.24624 22.3913 6.46716 22.3913 7.7402V12.5402H17.6087C13.8034 12.5402 10.154 14.0573 7.46326 16.7578C4.77252 19.4584 3.26086 23.1211 3.26086 26.9402V84.54C3.26086 88.3592 4.77252 92.022 7.46326 94.7224C10.154 97.4232 13.8034 98.94 17.6087 98.94H84.5652C88.3704 98.94 92.02 97.4232 94.7109 94.7224C97.4013 92.022 98.913 88.3592 98.913 84.54V26.9402C98.913 23.1211 97.4013 19.4584 94.7109 16.7578C92.02 14.0573 88.3704 12.5402 84.5652 12.5402ZM89.3478 84.54C89.3478 85.8132 88.8439 87.034 87.947 87.9344C87.05 88.8344 85.8335 89.34 84.5652 89.34H17.6087C16.3403 89.34 15.1238 88.8344 14.2269 87.9344C13.33 87.034 12.8261 85.8132 12.8261 84.54V41.34H89.3478V84.54ZM89.3478 31.7402H12.8261V26.9402C12.8261 25.6672 13.33 24.4462 14.2269 23.5461C15.1238 22.6459 16.3403 22.1402 17.6087 22.1402H84.5652C85.8335 22.1402 87.05 22.6459 87.947 23.5461C88.8439 24.4462 89.3478 25.6672 89.3478 26.9402V31.7402ZM27.1739 79.74C28.1198 79.74 29.0445 79.4588 29.831 78.9312C30.6175 78.404 31.2305 77.654 31.5925 76.7772C31.9544 75.9 32.0492 74.9348 31.8646 74.0036C31.6801 73.0728 31.2246 72.2172 30.5557 71.546C29.8869 70.8748 29.0347 70.4176 28.107 70.2324C27.1792 70.0472 26.2176 70.1424 25.3437 70.5056C24.4698 70.8688 23.7228 71.484 23.1973 72.2736C22.6718 73.0628 22.3913 73.9908 22.3913 74.94C22.3913 76.2132 22.8952 77.434 23.7921 78.3344C24.689 79.2344 25.9055 79.74 27.1739 79.74Z"/>
</svg>-->
<svg xmlns="http://www.w3.org/2000/svg" width="48" height="48" viewBox="0 0 48 48">
    <title>ionicons-v5-a</title>
    <path d="M24 28.8C24.4351 28.8 24.8605 28.6592 25.2223 28.3955C25.584 28.1318 25.866 27.757 26.0325 27.3184C26.199 26.8799 26.2426 26.3973 26.1577 25.9318C26.0728 25.4662 25.8633 25.0386 25.5556 24.7029C25.248 24.3673 24.856 24.1387 24.4292 24.0461C24.0024 23.9535 23.5601 24.001 23.1581 24.1827C22.7561 24.3643 22.4125 24.672 22.1708 25.0666C21.929 25.4613 21.8 25.9253 21.8 26.4C21.8 27.0365 22.0318 27.647 22.4444 28.0971C22.8569 28.5471 23.4165 28.8 24 28.8ZM35 28.8C35.4351 28.8 35.8605 28.6592 36.2223 28.3955C36.584 28.1318 36.866 27.757 37.0325 27.3184C37.199 26.8799 37.2426 26.3973 37.1577 25.9318C37.0728 25.4662 36.8633 25.0386 36.5556 24.7029C36.248 24.3673 35.856 24.1387 35.4292 24.0461C35.0024 23.9535 34.5601 24.001 34.1581 24.1827C33.7561 24.3643 33.4125 24.672 33.1708 25.0666C32.929 25.4613 32.8 25.9253 32.8 26.4C32.8 27.0365 33.0318 27.647 33.4444 28.0971C33.8569 28.5471 34.4165 28.8 35 28.8ZM24 38.4C24.4351 38.4 24.8605 38.2592 25.2223 37.9955C25.584 37.7318 25.866 37.357 26.0325 36.9184C26.199 36.4799 26.2426 35.9973 26.1577 35.5318C26.0728 35.0662 25.8633 34.6386 25.5556 34.3029C25.248 33.9673 24.856 33.7387 24.4292 33.6461C24.0024 33.5535 23.5601 33.601 23.1581 33.7827C22.7561 33.9643 22.4125 34.272 22.1708 34.6666C21.929 35.0613 21.8 35.5253 21.8 36C21.8 36.6365 22.0318 37.247 22.4444 37.6971C22.8569 38.1471 23.4165 38.4 24 38.4ZM35 38.4C35.4351 38.4 35.8605 38.2592 36.2223 37.9955C36.584 37.7318 36.866 37.357 37.0325 36.9184C37.199 36.4799 37.2426 35.9973 37.1577 35.5318C37.0728 35.0662 36.8633 34.6386 36.5556 34.3029C36.248 33.9673 35.856 33.7387 35.4292 33.6461C35.0024 33.5535 34.5601 33.601 34.1581 33.7827C33.7561 33.9643 33.4125 34.272 33.1708 34.6666C32.929 35.0613 32.8 35.5253 32.8 36C32.8 36.6365 33.0318 37.247 33.4444 37.6971C33.8569 38.1471 34.4165 38.4 35 38.4ZM13 28.8C13.4351 28.8 13.8605 28.6592 14.2223 28.3955C14.584 28.1318 14.866 27.757 15.0325 27.3184C15.199 26.8799 15.2426 26.3973 15.1577 25.9318C15.0728 25.4662 14.8633 25.0386 14.5556 24.7029C14.248 24.3673 13.856 24.1387 13.4292 24.0461C13.0024 23.9535 12.5601 24.001 12.1581 24.1827C11.7561 24.3643 11.4125 24.672 11.1708 25.0666C10.929 25.4613 10.8 25.9253 10.8 26.4C10.8 27.0365 11.0318 27.647 11.4444 28.0971C11.8569 28.5471 12.4165 28.8 13 28.8ZM39.4 4.8H37.2V2.4C37.2 1.76348 36.9682 1.15303 36.5556 0.702944C36.1431 0.252856 35.5835 0 35 0C34.4165 0 33.8569 0.252856 33.4444 0.702944C33.0318 1.15303 32.8 1.76348 32.8 2.4V4.8H15.2V2.4C15.2 1.76348 14.9682 1.15303 14.5556 0.702944C14.1431 0.252856 13.5835 0 13 0C12.4165 0 11.8569 0.252856 11.4444 0.702944C11.0318 1.15303 10.8 1.76348 10.8 2.4V4.8H8.6C6.84957 4.8 5.17084 5.55857 3.9331 6.90883C2.69536 8.25909 2 10.0904 2 12V40.8C2 42.7096 2.69536 44.5409 3.9331 45.8912C5.17084 47.2414 6.84957 48 8.6 48H39.4C41.1504 48 42.8292 47.2414 44.0669 45.8912C45.3046 44.5409 46 42.7096 46 40.8V12C46 10.0904 45.3046 8.25909 44.0669 6.90883C42.8292 5.55857 41.1504 4.8 39.4 4.8V4.8ZM41.6 40.8C41.6 41.4365 41.3682 42.047 40.9556 42.4971C40.5431 42.9471 39.9835 43.2 39.4 43.2H8.6C8.01652 43.2 7.45695 42.9471 7.04437 42.4971C6.63179 42.047 6.4 41.4365 6.4 40.8V19.2H41.6V40.8ZM41.6 14.4H6.4V12C6.4 11.3635 6.63179 10.753 7.04437 10.3029C7.45695 9.85286 8.01652 9.6 8.6 9.6H39.4C39.9835 9.6 40.5431 9.85286 40.9556 10.3029C41.3682 10.753 41.6 11.3635 41.6 12V14.4ZM13 38.4C13.4351 38.4 13.8605 38.2592 14.2223 37.9955C14.584 37.7318 14.866 37.357 15.0325 36.9184C15.199 36.4799 15.2426 35.9973 15.1577 35.5318C15.0728 35.0662 14.8633 34.6386 14.5556 34.3029C14.248 33.9673 13.856 33.7387 13.4292 33.6461C13.0024 33.5535 12.5601 33.601 12.1581 33.7827C11.7561 33.9643 11.4125 34.272 11.1708 34.6666C10.929 35.0613 10.8 35.5253 10.8 36C10.8 36.6365 11.0318 37.247 11.4444 37.6971C11.8569 38.1471 12.4165 38.4 13 38.4Z"/>
</svg>
