<svg width="675" height="536" viewBox="0 0 675 536" fill="none" xmlns="http://www.w3.org/2000/svg">
<path d="M300.654 10.3511C316.656 16.0779 328.048 20.8761 347.305 32.6394C352.187 35.5802 353.95 37.4376 354.086 46.1052C354.764 82.9428 353.95 102.6 353.95 102.6C353.95 102.6 363.164 127.654 347.305 114.145C255.359 35.8267 159.503 48.8176 102.274 161.033C66.7427 230.529 56.2406 306.068 93.6702 370.611C127.709 429.118 168.838 467.511 230 472C321.342 478.703 376.607 472 396 472C520.901 472.155 537.301 471.845 662.202 472C675.492 472 674 482.12 674 497.753C674 509.671 674 521.589 674 534.59C669.253 534.9 665.728 535.364 662.202 535.364C517.772 535.364 385.413 537.067 240.984 534.9C117.982 533.042 19.1189 445.747 2.57398 307.219C-6.91902 227.971 9.62592 156.154 55.8704 94.8609C98.182 38.8306 152.835 6.79116 217.116 0.445184C255.088 -1.87651 286.686 5.39814 300.654 10.3511Z" fill="#2E81AA"/>
</svg>
