<svg width="100" height="100" viewBox="0 0 100 100" fill="none" xmlns="http://www.w3.org/2000/svg">
<g clip-path="url(#clip0)">
<path d="M46.7315 1.93813C49.0134 2.95797 50.5202 3.92295 53.2662 6.01774C53.9624 6.54143 53.2662 7.57409 53.2855 9.11762C53.3822 15.6776 53.2662 19.1781 53.2662 19.1781C53.2662 19.1781 53.4596 38.5428 53.2855 38.3223C49.3004 19.1781 25.6906 14.1579 21.3804 35.4483C19.0034 47.1896 19.6362 59.884 24.5875 70.7297C30.033 80.68 41.2707 79.4284 49.5875 80.0254C53.4551 80.0254 57.3272 80.0254 60.0925 80.0254C77.9027 80.053 81.9853 79.8984 99.7955 79.9259C99.7955 81.12 99.7955 87.1918 99.7955 89.9757C99.7955 92.098 99.7955 94.7328 99.7955 97.0481C99.7955 102.412 100.298 99.3699 99.7955 99.3699C79.208 100.033 56.5289 99.6153 35.9341 99.2294C18.3946 98.8986 2.71313 82.588 0.353911 57.9191C-0.99974 43.8068 2.11909 27.6568 8.71331 16.7418C14.7467 6.76402 24.4382 1.255 33.6044 0.124919C39.019 -0.288526 44.7397 1.05612 46.7315 1.93813Z" fill="#2E81AA"/>
</g>
<defs>
<clipPath id="clip0">
<rect width="100" height="100" fill="white"/>
</clipPath>
</defs>
</svg>
