<!--<svg xmlns="http://www.w3.org/2000/svg" width="100" height="100" viewBox="0 0 100 100">
    <title>ionicons-v5-a</title>
    <path d="M95.6461 34.3135C95.5809 34.158 95.5274 34.0074 95.4509 33.8567C95.1704 33.3294 94.7774 32.8472 94.2913 32.433L58.7974 3.27728C58.2931 2.87776 57.7061 2.55524 57.0639 2.32486C56.8865 2.25683 56.6974 2.21795 56.5078 2.1645C56.0131 2.02614 55.4978 1.94279 54.9757 1.91668C54.8457 1.90696 54.7335 1.85351 54.6091 1.85351H13.1995C6.67457 1.85351 1.36826 6.21229 1.36826 11.5721V89.3207C1.36826 94.6804 6.67457 99.0393 13.1995 99.0393H84.1874C90.7122 99.0393 96.0187 94.6804 96.0187 89.3207V35.8686C96.0187 35.7664 95.9535 35.6741 95.9417 35.5672C95.9113 35.1404 95.8117 34.7188 95.6461 34.3135ZM75.8226 31.0092H60.5248V18.4431L75.8226 31.0092ZM13.1995 89.3207V11.5721H48.6935V35.8686C48.6935 37.1571 49.3165 38.3932 50.4261 39.3046C51.5357 40.2157 53.04 40.7279 54.6091 40.7279H84.1874L84.1991 89.3207H13.1995Z"/>
    <path d="M43.863 61.0004V99.0393H53.5248V61.0004L74.263 78.0357L81.0939 72.4246L48.6939 45.8104L16.2937 72.4246L23.1245 78.0357L43.863 61.0004Z"/>
</svg>-->
<svg xmlns="http://www.w3.org/2000/svg" width="48" height="48" viewBox="0 0 48 48">
    <title>ionicons-v5-a</title>
    <path d="M43.0488 16.032C43.0224 15.9552 43.0008 15.8808 42.9696 15.8064C42.8558 15.5459 42.6965 15.3078 42.4992 15.1032L28.0992 0.7032C27.8946 0.505877 27.6565 0.346587 27.396 0.2328C27.324 0.1992 27.2472 0.18 27.1704 0.1536C26.9696 0.0852628 26.7605 0.044098 26.5488 0.0312C26.496 0.0264 26.4504 0 26.4 0H9.59999C6.95279 0 4.79999 2.1528 4.79999 4.8V43.2C4.79999 45.8472 6.95279 48 9.59999 48H38.4C41.0472 48 43.2 45.8472 43.2 43.2V16.8C43.2 16.7496 43.1736 16.704 43.1688 16.6512C43.1565 16.4404 43.1161 16.2322 43.0488 16.032ZM35.0064 14.4H28.8V8.1936L35.0064 14.4ZM9.59999 43.2V4.8H24V16.8C24 17.4365 24.2528 18.047 24.7029 18.4971C25.153 18.9471 25.7635 19.2 26.4 19.2H38.4L38.4048 43.2H9.59999Z"/>
    <path d="M22.0415 29.2128V48.0001H25.9613V29.2128L34.375 37.6266L37.1463 34.8553L24.0014 21.7104L10.8566 34.8553L13.6278 37.6266L22.0415 29.2128Z"/>
</svg>
