<!--<svg xmlns="http://www.w3.org/2000/svg" width="100" height="100" viewBox="0 0 100 100">
<title>ionicons-v5-a</title>
    <path d="M98.913 61.6068V88.2736C98.913 91.1024 97.7935 93.8156 95.8 95.816C93.807 97.8164 91.1039 98.94 88.2852 98.94H13.8889C11.0702 98.94 8.36687 97.8164 6.37374 95.816C4.38061 93.8156 3.26087 91.1024 3.26087 88.2736V13.6068C3.26087 10.7779 4.38061 8.06476 6.37374 6.06436C8.36687 4.064 11.0702 2.94019 13.8889 2.94019H40.459V13.6068H13.8889V88.2736H88.2852V61.6068H98.913Z"/>
    <path d="M98.9135 24.2735H77.6574V2.94019H67.0291V24.2735H45.773V34.9402H67.0291V56.2736H77.6574V34.9402H98.9135"/>
</svg>-->


<svg xmlns="http://www.w3.org/2000/svg" width="48" height="48" viewBox="0 0 48 48">
    <title>ionicons-v5-a</title>
    <path d="M46 29.3333V42.6667C46 44.0812 45.4849 45.4377 44.5681 46.4379C43.6512 47.4381 42.4077 48 41.1111 48H6.88889C5.59227 48 4.34877 47.4381 3.43192 46.4379C2.51508 45.4377 2 44.0812 2 42.6667V5.33333C2 3.91885 2.51508 2.56229 3.43192 1.5621C4.34877 0.561903 5.59227 0 6.88889 0H19.1111V5.33333H6.88889V42.6667H41.1111V29.3333H46Z"/>
    <path d="M45.9992 10.6667H36.2214V0H31.3325V10.6667H21.5547V16H31.3325V26.6667H36.2214V16H45.9992"/>
</svg>
