<!--<svg xmlns="http://www.w3.org/2000/svg" width="100" height="100" viewBox="0 0 100 100">
    <title>ionicons-v5-a</title>
    <path fill-rule="evenodd" clip-rule="evenodd" d="M42.7993 1.7426C44.9893 0.600978 47.4723 0 49.9999 0C52.5275 0 55.0105 0.600893 57.2001 1.74236L57.2094 1.74717L92.7909 20.1371C94.5888 21.0761 96.1371 22.3527 97.3337 23.8757C97.6102 24.1178 97.8542 24.3981 98.0562 24.7141C98.2319 24.9888 98.3658 25.2749 98.4598 25.5666C99.4685 27.3786 99.9979 29.382 100 31.4177V31.4216V68.2015V68.2053C99.9975 70.4923 99.3298 72.7384 98.0647 74.7184C96.7992 76.6984 94.9805 78.3427 92.7909 79.4861L92.7743 79.4946L57.2094 97.8758L57.2013 97.88C55.6339 98.6973 53.9159 99.2377 52.1393 99.4788C51.5108 99.8104 50.7798 100 49.9999 100C49.22 100 48.489 99.8104 47.8605 99.4788C46.0835 99.2377 44.3659 98.6973 42.7985 97.88L42.7908 97.8758L7.2257 79.4946L7.20929 79.4861C5.01956 78.3427 3.20077 76.6984 1.93542 74.7184C0.670037 72.7384 0.00259396 70.4923 0 68.2053V31.4177C0.00230905 29.3812 0.531792 27.3772 1.54123 25.5646C1.63516 25.2736 1.76886 24.9881 1.94414 24.7141C2.14592 24.3986 2.38962 24.1188 2.66522 23.877C3.86218 22.3535 5.41057 21.0764 7.20929 20.1371L7.22566 20.1286L42.7908 1.74717L42.7993 1.7426ZM54.2523 90.5446L88.5385 72.8242L88.5458 72.8203C89.4409 72.3515 90.1838 71.6784 90.7013 70.8688C91.2205 70.0569 91.4944 69.1353 91.4952 68.1976V32.5902L54.2523 52.0757V90.5446ZM45.7475 52.0753V90.5446L11.4616 72.8242L11.4542 72.8203C10.5594 72.3515 9.81613 71.6788 9.29862 70.8688C8.77991 70.0573 8.50618 69.1365 8.50478 68.1992V32.59L45.7475 52.0753ZM52.957 8.40895L87.0498 26.0295L50.0003 45.4137L12.9505 26.0293L47.0266 8.41749L47.0432 8.40892C47.9422 7.93945 48.9619 7.69234 49.9999 7.69234C51.0379 7.69234 52.0581 7.93949 52.957 8.40895Z"/>
</svg>-->


<svg xmlns="http://www.w3.org/2000/svg" id="new" width="48" height="48" viewBox="0 0 48 48">
    <title>ionicons-v5-a</title>
    <path fill-rule="evenodd" clip-rule="evenodd" d="M20.874 0.836449C21.8246 0.288468 22.9027 0 24 0C25.0973 0 26.1752 0.288427 27.1259 0.836333L27.1299 0.838644L42.5774 9.66577C43.3587 10.1169 44.0312 10.7303 44.551 11.4621C44.6701 11.5779 44.7754 11.7117 44.8627 11.8626C44.9384 11.9935 44.9963 12.1298 45.037 12.2687C45.476 13.1394 45.7062 14.1021 45.7072 15.0805L45.7072 15.0823V32.7366L45.7072 32.7385C45.7061 33.8363 45.4164 34.9144 44.867 35.8648C44.3176 36.8151 43.528 37.6043 42.5774 38.1532L42.5703 38.1573L27.1299 46.9803L27.1264 46.9823C26.4456 47.3748 25.6995 47.6342 24.9277 47.7499C24.655 47.9088 24.3379 47.9998 23.9995 47.9998C23.6609 47.9998 23.3437 47.9087 23.0709 47.7496C22.2996 47.6339 21.5539 47.3745 20.8734 46.9822L20.8702 46.9803L5.42978 38.1573L5.42265 38.1532C4.47199 37.6043 3.68238 36.8151 3.13303 35.8648C2.58368 34.9144 2.29391 33.8363 2.29279 32.7385V15.0805C2.29379 14.1043 2.52304 13.1436 2.9601 12.2745C3.00093 12.1336 3.05934 11.9953 3.13611 11.8626C3.22434 11.7101 3.33105 11.5749 3.45177 11.4583C3.97117 10.7282 4.64271 10.1161 5.42265 9.66579L5.42977 9.66168L20.8702 0.838644L20.874 0.836449ZM25.8456 43.4616L40.7312 34.9556L40.7345 34.9537C41.123 34.7286 41.4456 34.4057 41.6703 34.017C41.8956 33.6272 42.0145 33.185 42.0149 32.7347V15.6427L25.8456 24.9961V43.4616ZM22.1533 24.9962V43.461L7.2688 34.9556L7.26554 34.9537C6.87708 34.7286 6.5544 34.4057 6.32972 34.017C6.10454 33.6274 5.9857 33.1855 5.98509 32.7356V15.6434L22.1533 24.9962ZM25.2837 4.03629L40.0845 12.4938L23.9994 21.7985L7.91494 12.4942L22.7092 4.04039L22.7163 4.03628C23.1066 3.81094 23.5493 3.69231 24 3.69231C24.4507 3.69231 24.8934 3.81095 25.2837 4.03629Z"/>
</svg>
