<!--<svg xmlns="http://www.w3.org/2000/svg" width="100" height="100" viewBox="0 0 100 100">
    <title>ionicons-v5-a</title>
    <path d="M41.6666 74.94H46.4286V79.74C46.4286 81.0132 46.9303 82.234 47.8233 83.1344C48.7162 84.0344 49.9276 84.54 51.1905 84.54C52.4533 84.54 53.6647 84.0344 54.5576 83.1344C55.4505 82.234 55.9524 81.0132 55.9524 79.74V74.94H60.7143C61.9771 74.94 63.1886 74.4344 64.0814 73.5344C64.9743 72.634 65.4762 71.4132 65.4762 70.14C65.4762 68.8672 64.9743 67.6464 64.0814 66.746C63.1886 65.846 61.9771 65.34 60.7143 65.34H55.9524V60.54C55.9524 59.2672 55.4505 58.0464 54.5576 57.146C53.6647 56.246 52.4533 55.74 51.1905 55.74C49.9276 55.74 48.7162 56.246 47.8233 57.146C46.9303 58.0464 46.4286 59.2672 46.4286 60.54V65.34H41.6666C40.4037 65.34 39.1925 65.846 38.2995 66.746C37.4065 67.6464 36.9047 68.8672 36.9047 70.14C36.9047 71.4132 37.4065 72.634 38.2995 73.5344C39.1925 74.4344 40.4037 74.94 41.6666 74.94ZM84.5238 22.1402H75V17.3402C75 13.5211 73.4947 9.85836 70.8157 7.15784C68.1366 4.45732 64.5028 2.94019 60.7143 2.94019H41.6666C37.8778 2.94019 34.2442 4.45732 31.5651 7.15784C28.886 9.85836 27.3809 13.5211 27.3809 17.3402V22.1402H17.8571C14.0683 22.1402 10.4347 23.6573 7.7556 26.3578C5.07651 29.0584 3.57141 32.7211 3.57141 36.5402V84.54C3.57141 88.3592 5.07651 92.022 7.7556 94.7224C10.4347 97.4232 14.0683 98.94 17.8571 98.94H84.5238C88.3124 98.94 91.9462 97.4232 94.6252 94.7224C97.3043 92.022 98.8095 88.3592 98.8095 84.54V36.5402C98.8095 32.7211 97.3043 29.0584 94.6252 26.3578C91.9462 23.6573 88.3124 22.1402 84.5238 22.1402ZM36.9047 17.3402C36.9047 16.0672 37.4065 14.8462 38.2995 13.9461C39.1925 13.0459 40.4037 12.5402 41.6666 12.5402H60.7143C61.9771 12.5402 63.1886 13.0459 64.0814 13.9461C64.9743 14.8462 65.4762 16.0672 65.4762 17.3402V22.1402H36.9047V17.3402ZM89.2857 84.54C89.2857 85.8132 88.7838 87.034 87.8909 87.9344C86.9981 88.8344 85.7866 89.34 84.5238 89.34H17.8571C16.5942 89.34 15.383 88.8344 14.4899 87.9344C13.5969 87.034 13.0952 85.8132 13.0952 84.54V50.94H89.2857V84.54ZM89.2857 41.34H13.0952V36.5402C13.0952 35.2672 13.5969 34.0462 14.4899 33.1461C15.383 32.2459 16.5942 31.7402 17.8571 31.7402H84.5238C85.7866 31.7402 86.9981 32.2459 87.8909 33.1461C88.7838 34.0462 89.2857 35.2672 89.2857 36.5402V41.34Z"/>
</svg>-->


<svg xmlns="http://www.w3.org/2000/svg" width="48" height="48" viewBox="0 0 48 48">
    <title>ionicons-v5-a</title>
    <path d="M20 36H22V38.4C22 39.0365 22.2107 39.647 22.5858 40.0971C22.9609 40.5471 23.4696 40.8 24 40.8C24.5304 40.8 25.0391 40.5471 25.4142 40.0971C25.7893 39.647 26 39.0365 26 38.4V36H28C28.5304 36 29.0391 35.7471 29.4142 35.2971C29.7893 34.847 30 34.2365 30 33.6C30 32.9635 29.7893 32.353 29.4142 31.9029C29.0391 31.4529 28.5304 31.2 28 31.2H26V28.8C26 28.1635 25.7893 27.553 25.4142 27.1029C25.0391 26.6529 24.5304 26.4 24 26.4C23.4696 26.4 22.9609 26.6529 22.5858 27.1029C22.2107 27.553 22 28.1635 22 28.8V31.2H20C19.4696 31.2 18.9609 31.4529 18.5858 31.9029C18.2107 32.353 18 32.9635 18 33.6C18 34.2365 18.2107 34.847 18.5858 35.2971C18.9609 35.7471 19.4696 36 20 36V36ZM38 9.6H34V7.2C34 5.29044 33.3679 3.45909 32.2426 2.10883C31.1174 0.75857 29.5913 0 28 0H20C18.4087 0 16.8826 0.75857 15.7574 2.10883C14.6321 3.45909 14 5.29044 14 7.2V9.6H10C8.4087 9.6 6.88258 10.3586 5.75736 11.7088C4.63214 13.0591 4 14.8904 4 16.8V40.8C4 42.7096 4.63214 44.5409 5.75736 45.8912C6.88258 47.2414 8.4087 48 10 48H38C39.5913 48 41.1174 47.2414 42.2426 45.8912C43.3679 44.5409 44 42.7096 44 40.8V16.8C44 14.8904 43.3679 13.0591 42.2426 11.7088C41.1174 10.3586 39.5913 9.6 38 9.6ZM18 7.2C18 6.56348 18.2107 5.95303 18.5858 5.50294C18.9609 5.05286 19.4696 4.8 20 4.8H28C28.5304 4.8 29.0391 5.05286 29.4142 5.50294C29.7893 5.95303 30 6.56348 30 7.2V9.6H18V7.2ZM40 40.8C40 41.4365 39.7893 42.047 39.4142 42.4971C39.0391 42.9471 38.5304 43.2 38 43.2H10C9.46957 43.2 8.96086 42.9471 8.58579 42.4971C8.21071 42.047 8 41.4365 8 40.8V24H40V40.8ZM40 19.2H8V16.8C8 16.1635 8.21071 15.553 8.58579 15.1029C8.96086 14.6529 9.46957 14.4 10 14.4H38C38.5304 14.4 39.0391 14.6529 39.4142 15.1029C39.7893 15.553 40 16.1635 40 16.8V19.2Z"/>
</svg>
