<!--
<svg xmlns="http://www.w3.org/2000/svg" width="100" height="100" viewBox="0 0 100 100">
    <title>ionicons-v5-a</title>
    <path d="M93.75 56.2499H85.3517C86.7837 52.1487 87.5 47.982 87.5 43.7499H93.75C95.4425 43.7499 96.9075 44.3686 98.1446 45.6057C99.3817 46.8424 100 48.3237 100 50.0491C100 51.7741 99.3817 53.2391 98.1446 54.4437C96.9075 55.6478 95.4425 56.2499 93.75 56.2499ZM90.625 33.4962L86.6212 35.8399C85.7746 31.7383 84.2121 27.8647 81.9337 24.2188L84.4725 22.7539C85.97 21.8425 87.5325 21.6146 89.16 22.0704C90.7879 22.5261 92.0408 23.5026 92.92 25.0001C93.7987 26.4974 94.0104 28.0762 93.5546 29.7364C93.0992 31.3965 92.1225 32.6498 90.625 33.4962ZM76.3671 17.0899C73.4375 14.1602 70.0196 11.7839 66.1133 9.96095L66.5037 9.37503C67.3504 7.87761 68.6033 6.90107 70.2637 6.44532C71.9237 5.98961 73.5025 6.20119 75 7.08011C76.4975 7.95899 77.4742 9.21224 77.9296 10.8399C78.3854 12.4675 78.1575 14.03 77.2462 15.5274L76.3671 17.0899ZM77.2462 84.4729C78.1575 85.9704 78.3854 87.5329 77.9296 89.1604C77.4742 90.7879 76.4975 92.0412 75 92.92C73.5025 93.7992 71.9237 94.0104 70.2637 93.555C68.6033 93.0992 67.3504 92.1225 66.5037 90.625L60.1562 79.7854C64.2579 78.6787 68.0337 76.9208 71.4842 74.512L77.2462 84.4729ZM49.9512 100C48.2258 100 46.7612 99.3979 45.5567 98.1937C44.3521 96.9892 43.75 95.5079 43.75 93.75V80.4687C45.8333 80.9895 47.9167 81.25 50 81.25C51.9533 81.25 54.0367 81.055 56.25 80.6641V93.75C56.25 95.5079 55.6317 96.9892 54.3946 98.1937C53.1575 99.3979 51.6762 100 49.9512 100ZM50 37.5001C47.8517 37.5001 46.1587 36.6212 44.9217 34.8633C38.9975 35.7748 34.196 38.1023 30.5176 41.8457C26.8392 45.5895 25 50.3907 25 56.2499H6.25C4.55729 56.2499 3.09246 55.6478 1.85546 54.4437C0.618492 53.2391 0 51.7741 0 50.0491C0 48.3237 0.618492 46.8424 1.85546 45.6057C3.09246 44.3686 4.55729 43.7499 6.25 43.7499H26.8555L9.375 33.4962C7.87758 32.6498 6.90104 31.3965 6.44533 29.7364C5.98958 28.0762 6.20117 26.4974 7.08008 25.0001C7.959 23.5026 9.21225 22.5261 10.8398 22.0704C12.4675 21.6146 14.03 21.8425 15.5273 22.7539L32.7148 32.7149L22.7539 15.5274C21.8425 14.03 21.6146 12.4675 22.0703 10.8399C22.526 9.21224 23.5026 7.95899 25 7.08011C26.4974 6.20119 28.0762 5.98961 29.7363 6.44532C31.3965 6.90107 32.6497 7.87761 33.4961 9.37503L43.75 26.8555V6.25003C43.75 4.55732 44.3521 3.09244 45.5567 1.85548C46.7612 0.618493 48.2421 0 50 0C51.7579 0 53.2387 0.618493 54.4433 1.85548C55.6479 3.09244 56.25 4.55732 56.25 6.25003V31.2501C56.25 33.0079 55.6317 34.489 54.3946 35.6934C53.1575 36.8979 51.6925 37.5001 50 37.5001ZM9.375 66.5041L25.0977 57.3245C25.2279 61.7516 26.4648 65.8204 28.8086 69.5312L15.5273 77.2462C14.03 78.1579 12.4675 78.3854 10.8398 77.93C9.21225 77.4741 7.959 76.4975 7.08008 75C6.20117 73.5029 5.98958 71.9241 6.44533 70.2637C6.90104 68.6037 7.87758 67.3503 9.375 66.5041ZM30.2734 71.4845C32.9427 75 36.2305 77.5716 40.1367 79.1995L33.4961 90.625C32.6497 92.1225 31.3965 93.0992 29.7363 93.555C28.0762 94.0104 26.4974 93.7992 25 92.92C23.5026 92.0412 22.526 90.7879 22.0703 89.1604C21.6146 87.5329 21.8425 85.9704 22.7539 84.4729L30.2734 71.4845ZM82.8125 61.9141L90.625 66.5041C92.1225 67.3503 93.0992 68.6037 93.5546 70.2637C94.0104 71.9241 93.7987 73.5029 92.92 75C92.0408 76.4975 90.7879 77.4741 89.16 77.93C87.5325 78.3854 85.97 78.1579 84.4725 77.2462L74.9025 71.6799C78.1575 68.8154 80.7942 65.5599 82.8125 61.9141Z"/>
</svg>
-->


<svg xmlns="http://www.w3.org/2000/svg" width="48" height="48" viewBox="0 0 48 48">
    <title>ionicons-v5-a</title>
    <path d="M45 27H40.9688C41.6563 25.0312 42 23.0312 42 21H45C45.8125 21 46.5156 21.2969 47.1094 21.8906C47.7031 22.4844 48 23.1953 48 24.0234C48 24.8516 47.7031 25.5547 47.1094 26.1328C46.5156 26.7109 45.8125 27 45 27ZM43.5 16.0781L41.5781 17.2031C41.1719 15.2344 40.4219 13.375 39.3281 11.625L40.5469 10.9219C41.2656 10.4844 42.0156 10.375 42.7969 10.5938C43.5781 10.8125 44.1797 11.2813 44.6016 12C45.0234 12.7187 45.125 13.4766 44.9062 14.2734C44.6875 15.0703 44.2187 15.6719 43.5 16.0781ZM36.6562 8.20312C35.25 6.79688 33.6094 5.65625 31.7344 4.78125L31.9219 4.5C32.3281 3.78125 32.9297 3.3125 33.7266 3.09375C34.5234 2.875 35.2813 2.97656 36 3.39844C36.7187 3.82031 37.1875 4.42188 37.4062 5.20312C37.625 5.98437 37.5156 6.73438 37.0781 7.45312L36.6562 8.20312ZM37.0781 40.5469C37.5156 41.2656 37.625 42.0156 37.4062 42.7969C37.1875 43.5781 36.7187 44.1797 36 44.6016C35.2813 45.0234 34.5234 45.125 33.7266 44.9062C32.9297 44.6875 32.3281 44.2187 31.9219 43.5L28.875 38.2969C30.8438 37.7656 32.6563 36.9219 34.3125 35.7656L37.0781 40.5469ZM23.9766 48C23.1484 48 22.4453 47.7109 21.8672 47.1328C21.2891 46.5547 21 45.8438 21 45V38.625C22 38.875 23 39 24 39C24.9375 39 25.9375 38.9062 27 38.7188V45C27 45.8438 26.7031 46.5547 26.1094 47.1328C25.5156 47.7109 24.8047 48 23.9766 48ZM24 18C22.9688 18 22.1563 17.5781 21.5625 16.7344C18.7187 17.1719 16.4141 18.2891 14.6484 20.0859C12.8828 21.8828 12 24.1875 12 27H3C2.1875 27 1.48438 26.7109 0.890625 26.1328C0.296875 25.5547 0 24.8516 0 24.0234C0 23.1953 0.296875 22.4844 0.890625 21.8906C1.48438 21.2969 2.1875 21 3 21H12.8906L4.5 16.0781C3.78125 15.6719 3.3125 15.0703 3.09375 14.2734C2.875 13.4766 2.97656 12.7187 3.39844 12C3.82031 11.2813 4.42188 10.8125 5.20312 10.5938C5.98437 10.375 6.73438 10.4844 7.45312 10.9219L15.7031 15.7031L10.9219 7.45312C10.4844 6.73438 10.375 5.98437 10.5938 5.20312C10.8125 4.42188 11.2813 3.82031 12 3.39844C12.7187 2.97656 13.4766 2.875 14.2734 3.09375C15.0703 3.3125 15.6719 3.78125 16.0781 4.5L21 12.8906V3C21 2.1875 21.2891 1.48438 21.8672 0.890625C22.4453 0.296875 23.1562 0 24 0C24.8438 0 25.5547 0.296875 26.1328 0.890625C26.7109 1.48438 27 2.1875 27 3V15C27 15.8438 26.7031 16.5547 26.1094 17.1328C25.5156 17.7109 24.8125 18 24 18ZM4.5 31.9219L12.0469 27.5156C12.1094 29.6406 12.7031 31.5938 13.8281 33.375L7.45312 37.0781C6.73438 37.5156 5.98437 37.625 5.20312 37.4062C4.42188 37.1875 3.82031 36.7187 3.39844 36C2.97656 35.2813 2.875 34.5234 3.09375 33.7266C3.3125 32.9297 3.78125 32.3281 4.5 31.9219ZM14.5312 34.3125C15.8125 36 17.3906 37.2344 19.2656 38.0156L16.0781 43.5C15.6719 44.2187 15.0703 44.6875 14.2734 44.9062C13.4766 45.125 12.7187 45.0234 12 44.6016C11.2813 44.1797 10.8125 43.5781 10.5938 42.7969C10.375 42.0156 10.4844 41.2656 10.9219 40.5469L14.5312 34.3125ZM39.75 29.7188L43.5 31.9219C44.2187 32.3281 44.6875 32.9297 44.9062 33.7266C45.125 34.5234 45.0234 35.2813 44.6016 36C44.1797 36.7187 43.5781 37.1875 42.7969 37.4062C42.0156 37.625 41.2656 37.5156 40.5469 37.0781L35.9531 34.4062C37.5156 33.0312 38.7813 31.4687 39.75 29.7188Z"/>
</svg>
