<!--<svg xmlns="http://www.w3.org/2000/svg" width="100" height="100" viewBox="0 0 100 100">
    <title>ionicons-v5-a</title>
    <path d="M72.338 11.95V86.95C72.338 95.3 78.9352 100 86.169 100C92.7662 100 100 96.05 100 86.95V12.5C100 4.80001 93.4028 0 86.169 0C78.9352 0 72.338 5.30001 72.338 11.95ZM36.1689 50V86.95C36.1689 95.35 42.8818 100 49.9999 100C56.5971 100 63.8311 96.05 63.8311 86.95V50.55C63.8311 42.8501 57.2337 38.05 49.9999 38.05C42.7661 38.05 36.1689 43.3501 36.1689 50ZM13.831 76.15C21.4698 76.15 27.662 81.5 27.662 88.05C27.662 91.2192 26.2048 94.2588 23.611 96.5C21.0172 98.7408 17.4992 100 13.831 100C10.1628 100 6.64482 98.7408 4.051 96.5C1.45719 94.2588 0 91.2192 0 88.05C0 81.5 6.1921 76.15 13.831 76.15Z"/>
</svg>-->

<svg xmlns="http://www.w3.org/2000/svg" width="48" height="48" viewBox="0 0 48 48">
    <title>ionicons-v5-a</title>
    <path d="M31 5.736V41.736C31 45.744 33.28 48 35.78 48C38.06 48 40.56 46.104 40.56 41.736V6C40.56 2.304 38.28 0 35.78 0C33.28 0 31 2.544 31 5.736V5.736ZM18.5 24V41.736C18.5 45.768 20.82 48 23.28 48C25.56 48 28.06 46.104 28.06 41.736V24.264C28.06 20.568 25.78 18.264 23.28 18.264C20.78 18.264 18.5 20.808 18.5 24ZM10.78 36.552C13.42 36.552 15.56 39.12 15.56 42.264C15.56 43.7853 15.0564 45.2443 14.16 46.32C13.2635 47.3957 12.0477 48 10.78 48C9.51227 48 8.29645 47.3957 7.40003 46.32C6.50361 45.2443 6 43.7853 6 42.264C6 39.12 8.14 36.552 10.78 36.552Z"/>
</svg>
