<svg xmlns="http://www.w3.org/2000/svg" width="57" height="49" viewBox="0 0 57 49">
    <title>ionicons-v5-a</title>
    <path d="M18.0227 46.6164H50.0205V40.2168H18.0227V46.6164ZM18.0227 27.4177H37.2214V21.0181H18.0227V27.4177ZM18.0227 1.81938V8.21895H56.4201V1.81938H18.0227ZM5.22351 0.219483C4.593 0.219693 3.9687 0.344089 3.38626 0.58557C2.80382 0.827051 2.27465 1.18089 1.82896 1.62688C1.38327 2.07287 1.02978 2.60227 0.788692 3.18487C0.547599 3.76747 0.423618 4.39185 0.423828 5.02236C0.424038 5.65288 0.548435 6.27717 0.789917 6.85961C1.0314 7.44205 1.38523 7.97122 1.83122 8.41691C2.27721 8.8626 2.80662 9.21609 3.38922 9.45718C3.97181 9.69827 4.5962 9.82225 5.22671 9.82204C6.50009 9.82162 7.72114 9.31536 8.62126 8.41465C9.52137 7.51393 10.0268 6.29254 10.0264 5.01916C10.026 3.74578 9.51971 2.52473 8.61899 1.62461C7.71828 0.724499 6.49689 0.219058 5.22351 0.219483V0.219483ZM5.22351 19.4182C4.593 19.4184 3.9687 19.5428 3.38626 19.7843C2.80382 20.0258 2.27465 20.3796 1.82896 20.8256C1.38327 21.2716 1.02978 21.801 0.788691 22.3836C0.547599 22.9662 0.423618 23.5906 0.423828 24.2211C0.424038 24.8516 0.548435 25.4759 0.789917 26.0583C1.0314 26.6408 1.38523 27.1699 1.83122 27.6156C2.27721 28.0613 2.80662 28.4148 3.38922 28.6559C3.97181 28.897 4.5962 29.021 5.22671 29.0208C6.50009 29.0203 7.72114 28.5141 8.62126 27.6134C9.52137 26.7127 10.0268 25.4913 10.0264 24.2179C10.026 22.9445 9.51971 21.7234 8.61899 20.8233C7.71828 19.9232 6.49689 19.4178 5.22351 19.4182V19.4182ZM5.22351 38.6169C4.593 38.6171 3.9687 38.7415 3.38626 38.983C2.80382 39.2245 2.27465 39.5783 1.82896 40.0243C1.38327 40.4703 1.02978 40.9997 0.788691 41.5823C0.547599 42.1649 0.423618 42.7893 0.423828 43.4198C0.424038 44.0503 0.548435 44.6746 0.789917 45.2571C1.0314 45.8395 1.38523 46.3687 1.83122 46.8144C2.27721 47.26 2.80662 47.6135 3.38922 47.8546C3.97181 48.0957 4.5962 48.2197 5.22671 48.2195C6.50009 48.2191 7.72114 47.7128 8.62126 46.8121C9.52137 45.9114 10.0268 44.69 10.0264 43.4166C10.026 42.1432 9.51971 40.9222 8.61899 40.0221C7.71828 39.1219 6.49689 38.6165 5.22351 38.6169V38.6169Z"/>
</svg>
