<!--<svg xmlns="http://www.w3.org/2000/svg" width="100" height="100" viewBox="0 0 100 100">-->
<!--    <title>ionicons-v5-a</title>-->
<!--    <path class='vector'-->
<!--          d="M86.4583 11.5973V22.264H65.625V11.5973H86.4583ZM34.375 11.5973V43.5972H13.5417V11.5973H34.375ZM86.4583 54.264V86.264H65.625V54.264H86.4583ZM34.375 75.5972V86.264H13.5417V75.5972H34.375ZM96.875 0.930664H55.2083V32.9307H96.875V0.930664ZM44.7917 0.930664H3.125V54.264H44.7917V0.930664ZM96.875 43.5972H55.2083V96.9308H96.875V43.5972ZM44.7917 64.9308H3.125V96.9308H44.7917V64.9308Z"/>-->
<!--</svg>-->


<svg xmlns="http://www.w3.org/2000/svg" width="48" height="48" viewBox="0 0 48 48">
    <title>ionicons-v5-a</title>
    <path d="M41.5 5.33333V10.6667H31.5V5.33333H41.5ZM16.5 5.33333V21.3333H6.5V5.33333H16.5ZM41.5 26.6667V42.6667H31.5V26.6667H41.5ZM16.5 37.3333V42.6667H6.5V37.3333H16.5ZM46.5 0H26.5V16H46.5V0ZM21.5 0H1.5V26.6667H21.5V0ZM46.5 21.3333H26.5V48H46.5V21.3333ZM21.5 32H1.5V48H21.5V32Z"/>
</svg>
